<?xml version="1.0" standalone="no"?>
<!DOCTYPE svg PUBLIC "-//W3C//DTD SVG 20010904//EN"
 "http://www.w3.org/TR/2001/REC-SVG-20010904/DTD/svg10.dtd">
<svg version="1.0" xmlns="http://www.w3.org/2000/svg"
 width="512.000000pt" height="512.000000pt" viewBox="0 0 512.000000 512.000000"
 preserveAspectRatio="xMidYMid meet">

<g transform="translate(0.000000,512.000000) scale(0.100000,-0.100000)"
fill="#000000" stroke="none">
<path d="M2860 4800 l0 -320 232 0 233 0 -340 -340 -340 -340 -87 44 c-395
198 -868 174 -1255 -65 -108 -67 -299 -253 -370 -359 -257 -386 -293 -863 -97
-1276 147 -310 455 -575 778 -669 l56 -16 0 -250 0 -249 -225 0 -225 0 0 -320
0 -320 225 0 225 0 0 -160 0 -160 320 0 320 0 0 160 0 160 225 0 225 0 0 320
0 320 -225 0 -225 0 0 250 0 249 43 12 c67 17 206 77 277 119 317 185 541 499
616 865 28 136 26 367 -5 505 -25 115 -76 257 -121 336 l-28 51 339 339 339
339 0 -228 0 -227 320 0 320 0 0 775 0 775 -775 0 -775 0 0 -320z m-735 -1475
c178 -37 351 -170 432 -332 57 -113 77 -210 70 -332 -10 -173 -63 -289 -191
-417 -89 -89 -179 -141 -296 -170 -96 -24 -272 -15 -362 18 -187 70 -326 210
-396 396 -33 90 -42 255 -18 357 28 118 80 209 171 300 162 163 370 226 590
180z"/>
</g>
</svg>
